<?xml version="1.0" encoding="utf-8"?>
<!-- Generator: Adobe Illustrator 19.0.0, SVG Export Plug-In . SVG Version: 6.00 Build 0)  -->
<svg version="1.1" id="Calque_1" xmlns="http://www.w3.org/2000/svg" xmlns:xlink="http://www.w3.org/1999/xlink" x="0px" y="0px"
	 viewBox="2082 300.4 240 240" style="enable-background:new 2082 300.4 240 240;" xml:space="preserve">
<style type="text/css">
	.st0{fill:#007CC2;}
	.st1{fill:#FFFFFF;}
</style>
<g>
	<path class="st0" d="M2202.6,537.4c65,0,117.5-52.5,117.5-117.5s-52.5-117.5-117.5-117.5c-65,0-117.5,52.5-117.5,117.5
		S2137.5,537.4,2202.6,537.4z"/>
	<path d="M2203.2,515.3c52.1,0,94.7-42.2,94.7-94.7c0-52.1-42.2-94.7-94.7-94.7s-94.7,42.2-94.7,94.7
		C2108.5,472.7,2150.7,515.3,2203.2,515.3z"/>
	<path class="st1" d="M2267.3,447c-0.3,14.5-2.6,39.6-21.8,39.6c-19.1,0-21.5-13.5-21.8-30h-0.7c-9.2,17.5-24.4,30-45.5,30
		c-17.2,0-32.3-11.9-32.3-29.7c0-33.3,49.5-40.9,77.9-51.2v-14.2c0-20.1-4.6-32.7-27.4-32.7c-7.6,0-22.1,2-25.7,8.9
		c7.9,2.3,13.2,8.3,13.2,16.8c0,9.6-7.6,16.2-17.2,16.2c-8.6,0-15.5-8.9-15.5-17.8c0-19.5,23.4-31.7,46.9-31.7
		c21.1,0,46.2,6.3,46.2,29.7v70.6c0,13.2,0,18.8,6.3,18.8c9.2,0,9.9-17.8,10.6-23.4H2267.3L2267.3,447z M2223.4,414.3
		c-18.5,6.3-52.8,17.8-52.8,41.6c0,10.6,8.9,17.5,16.8,17.5c21.8,0,36-18.2,36-45.5V414.3z"/>
</g>
</svg>
