<?xml version="1.0" encoding="utf-8"?>
<!-- Generator: Adobe Illustrator 19.0.0, SVG Export Plug-In . SVG Version: 6.00 Build 0)  -->
<svg version="1.1" id="Calque_1" xmlns="http://www.w3.org/2000/svg" xmlns:xlink="http://www.w3.org/1999/xlink" x="0px" y="0px"
	 viewBox="1856.9 357.5 240 268.8" style="enable-background:new 1856.9 357.5 240 268.8;" xml:space="preserve">
<style type="text/css">
	.st0{fill:#A4C639;}
	.st1{fill:none;stroke:#A4C639;stroke-width:0.3159;stroke-linecap:round;stroke-linejoin:round;}
	.st2{fill:#FFFFFF;}
</style>
<path class="st0" d="M1940.3,522.4c9.1,0,16.4,7.4,16.4,16.4v70.5c0,9.1-7.4,16.4-16.4,16.4c-9.1,0-16.4-7.4-16.4-16.4v-70.5
	C1923.8,529.7,1931.2,522.4,1940.3,522.4L1940.3,522.4z"/>
<path class="st0" d="M1902.8,437.7c-0.1,0.6-0.1,1.3-0.1,1.9v106.8c0,11.5,9.1,20.7,20.4,20.7h108.6c11.3,0,20.4-9.3,20.4-20.7
	V439.5c0-0.6,0-1.3-0.1-1.9H1902.8L1902.8,437.7z"/>
<path class="st0" d="M2014.4,522.4c9.1,0,16.4,7.4,16.4,16.4v70.5c0,9.1-7.4,16.4-16.4,16.4c-9.1,0-16.4-7.4-16.4-16.4v-70.5
	C1998,529.7,2005.3,522.4,2014.4,522.4L2014.4,522.4z M1876.3,447.2c9.1,0,16.4,7.4,16.4,16.4v70.5c0,9.1-7.4,16.4-16.4,16.4
	c-9.1,0-16.4-7.4-16.4-16.4v-70.5C1859.8,454.5,1867.2,447.2,1876.3,447.2L1876.3,447.2z M2078.4,447.2c9.1,0,16.4,7.4,16.4,16.4
	v70.5c0,9.1-7.4,16.4-16.4,16.4c-9.1,0-16.4-7.4-16.4-16.4v-70.5C2062,454.5,2069.3,447.2,2078.4,447.2L2078.4,447.2z M1903.2,430.6
	c0.5-32.8,29.1-59.7,65.8-63.2h16.5c36.8,3.5,65.4,30.4,65.8,63.2H1903.2z"/>
<path class="st1" d="M1909,364.2l17.3,30 M2045.7,364.2l-17.3,30"/>
<path class="st2" d="M1955.3,401.2c0,4.6-3.8,8.3-8.5,8.3c-4.7,0-8.5-3.7-8.5-8.3v0c0-4.6,3.8-8.3,8.5-8.3
	C1951.4,392.9,1955.3,396.6,1955.3,401.2L1955.3,401.2z M2018.7,401.2c0,4.6-3.8,8.3-8.5,8.3c-4.7,0-8.5-3.7-8.5-8.3v0
	c0-4.6,3.8-8.3,8.5-8.3C2014.9,392.9,2018.7,396.6,2018.7,401.2L2018.7,401.2z"/>
</svg>
