<?xml version="1.0" encoding="utf-8"?>
<!-- Generator: Adobe Illustrator 19.0.0, SVG Export Plug-In . SVG Version: 6.00 Build 0)  -->
<svg version="1.1" id="Calque_1" xmlns="http://www.w3.org/2000/svg" xmlns:xlink="http://www.w3.org/1999/xlink" x="0px" y="0px"
	 viewBox="2084.2 393.2 240 64" style="enable-background:new 2084.2 393.2 240 64;" xml:space="preserve">
<g>
	<path d="M2171.5,438.6h-0.1l-6.5-25.8h-7.6l-6.4,25.8h-0.1l-6-25.8h-8l10.1,36.1h7.5l6.6-24.7h0.1l6.6,24.7h7.6l10-36.1h-8
		L2171.5,438.6z M2267,412.2c-9.5,0-15.2,6.2-15.2,16.5v4.4c0,10.5,5.7,16.4,15.2,16.4c9.6,0,14.3-5.8,14.3-12.3v-0.7h-7.2
		c0,3.7-1.9,6.6-7,6.6c-5.2,0-7.7-3.2-7.7-10.1v-4.4c0-6.8,2.6-10.2,7.7-10.2c4.8,0,7.1,3.2,7.1,6.8h7.2v-0.4
		C2281.3,417.8,2275.9,412.2,2267,412.2L2267,412.2z M2197.6,412.8l-11.6,36.1h7.5l2.6-9.1h11.4l2.6,9.1h8l-11.6-36.1H2197.6z
		 M2197.6,434.2l4.1-14.3h0.1l4.1,14.3H2197.6z M2311.5,412.8v14.5h-14.8v-14.5h-7.5v36.1h7.5v-15.4h14.8v15.4h7.5v-36.1H2311.5z
		 M2217.9,419h10.7v29.9h7.5V419h10.8v-6.2h-29V419z"/>
	<g>
		<path d="M2119.1,412.1c-4.1-0.3-7.5,2.3-9.4,2.3c-1.9,0-5-2.2-8.1-2.1c-4.2,0.1-8,2.4-10.2,6.2c-4.3,7.5-1.1,18.7,3.1,24.8
			c2.1,3,4.5,6.4,7.8,6.2c3.1-0.1,4.3-2,8.1-2c3.8,0,4.8,2,8.1,2c3.4-0.1,5.5-3,7.5-6.1c2.4-3.5,3.4-6.8,3.4-7
			c-0.1,0-6.5-2.5-6.6-10c-0.1-6.2,5.1-9.2,5.3-9.4C2125.2,412.7,2120.7,412.3,2119.1,412.1L2119.1,412.1z M2116.6,408.1
			c1.7-2.1,2.9-5,2.6-7.9c-2.5,0.1-5.5,1.7-7.3,3.7c-1.6,1.8-3,4.8-2.6,7.6C2112,411.8,2114.9,410.2,2116.6,408.1z"/>
	</g>
</g>
</svg>
