<?xml version="1.0" encoding="utf-8"?>
<!-- Generator: Adobe Illustrator 19.0.0, SVG Export Plug-In . SVG Version: 6.00 Build 0)  -->
<svg version="1.1" id="Calque_1" xmlns="http://www.w3.org/2000/svg" xmlns:xlink="http://www.w3.org/1999/xlink" x="0px" y="0px"
	 viewBox="1620 267.4 240 305" style="enable-background:new 1620 267.4 240 305;" xml:space="preserve">
<style type="text/css">
	.st0{fill:#999999;}
</style>
<path class="st0" d="M1751.7,305.7c18.2-23.9,43.4-24.1,43.4-24.1s3.8,22.5-14.3,44.2c-19.3,23.1-41.2,19.4-41.2,19.4
	S1735.5,327,1751.7,305.7z M1741.9,361c9.3,0,26.7-12.8,49.3-12.8c38.9,0,54.1,27.6,54.1,27.6s-29.9,15.3-29.9,52.4
	c0,41.8,37.2,56.3,37.2,56.3s-26,73.3-61.2,73.3c-16.1,0-28.7-10.9-45.7-10.9c-17.3,0-34.5,11.3-45.8,11.3
	c-32.1,0-72.7-69.5-72.7-125.4c0-55,34.3-83.8,66.5-83.8C1714.8,348.9,1731,361,1741.9,361L1741.9,361z"/>
</svg>
