<svg viewBox="0 0 1132 1597" xmlns:xlink="http://www.w3.org/1999/xlink" xmlns:ev="http://www.w3.org/2001/xml-events" xmlns="http://www.w3.org/2000/svg" width="1132" height="1597"><style type="text/css"><![CDATA[
.st5 {fill:#1f6391;font-family:Arial;font-size:10pt}
.st4 {fill:#1f6391;font-family:Arial;font-size:20pt}
.st1 {fill:#2d85c1;font-family:Arial;font-size:9pt}
.st3 {fill:#ffffff;font-family:Arial;font-size:10pt}
.st2 {fill:#ffffff;font-family:Arial;font-size:12pt}
]]></style><defs><linearGradient y2="269" y1="1319" gradientUnits="userSpaceOnUse" id="lg1" x1="1311" x2="-188"><stop offset="0" stop-color="#d5d5d5"/><stop offset="0.2" stop-color="#d5d5d5"/><stop offset="0.2" stop-color="#c4c4c4"/><stop offset="0.24" stop-color="#c4c4c4"/><stop offset="0.24" stop-color="#dfdfdf"/><stop offset="0.4" stop-color="#dfdfdf"/><stop offset="0.4" stop-color="#e8e8e8"/><stop offset="1" stop-color="#e8e8e8"/></linearGradient></defs><g id="page1" transform="translate(5,5)"><rect fill="#ffffff" y="0" x="0" stroke="#808080" width="1123" height="1587"/><g><g id="shape1"><path fill="#bebebe" fill-opacity="0.5" d="M2,2L1124.5,2L1124.5,1589.4L2,1589.4L2,2z"/><path fill="url(#lg1)" d="M0,0L1122.5,0L1122.5,1587.4L0,1587.4L0,0z"/></g><path fill="#ffffff" stroke="#afafaf" id="shape2" d="M0,0L1037.7,0L1037.7,1417L0,1417L0,0z" transform="translate(42.42,85.2)"/><path fill="none" stroke="#f2f2f2" id="shape3" d="M-0.9,56.7C-0.9,25.4,5.3,0,12.9,0C20.6,0,26.8,25.4,26.8,56.7C26.8,88,20.6,113.4,12.9,113.4C5.3,113.4,-0.9,88,-0.9,56.7z" transform="translate(547.39,279.05)"/><path fill="none" stroke="#f2f2f2" id="shape4" d="M-0.9,56.7C-0.9,25.4,5.3,0,12.9,0C20.6,0,26.8,25.4,26.8,56.7C26.8,88,20.6,113.4,12.9,113.4C5.3,113.4,-0.9,88,-0.9,56.7z" transform="translate(547.39,829.98)"/><path fill="none" stroke="#f2f2f2" id="shape5" d="M-0.9,56.7C-0.9,25.4,5.3,0,12.9,0C20.6,0,26.8,25.4,26.8,56.7C26.8,88,20.6,113.4,12.9,113.4C5.3,113.4,-0.9,88,-0.9,56.7z" transform="translate(547.39,1013.62)"/><path fill="none" stroke="#f2f2f2" id="shape6" d="M-0.9,56.7C-0.9,25.4,5.3,0,12.9,0C20.6,0,26.8,25.4,26.8,56.7C26.8,88,20.6,113.4,12.9,113.4C5.3,113.4,-0.9,88,-0.9,56.7z" transform="translate(547.39,1380.91)"/><path fill="none" stroke="#f2f2f2" id="shape7" d="M-0.9,56.7C-0.9,25.4,5.3,0,12.9,0C20.6,0,26.8,25.4,26.8,56.7C26.8,88,20.6,113.4,12.9,113.4C5.3,113.4,-0.9,88,-0.9,56.7z" transform="translate(547.39,1197.27)"/><path fill="none" stroke="#f2f2f2" id="shape8" d="M-0.9,56.7C-0.9,25.4,5.3,0,12.9,0C20.6,0,26.8,25.4,26.8,56.7C26.8,88,20.6,113.4,12.9,113.4C5.3,113.4,-0.9,88,-0.9,56.7z" transform="translate(547.39,646.33)"/><path fill="none" stroke="#f2f2f2" id="shape9" d="M-0.9,56.7C-0.9,25.4,5.3,0,12.9,0C20.6,0,26.8,25.4,26.8,56.7C26.8,88,20.6,113.4,12.9,113.4C5.3,113.4,-0.9,88,-0.9,56.7z" transform="translate(547.39,462.69)"/><path fill="none" stroke="#f2f2f2" id="shape10" d="M-1.9,22.9C-1.9,10.2,10.9,0,26.8,0C42.6,0,55.4,10.2,55.4,22.9C55.4,35.5,42.6,45.7,26.8,45.7C10.9,45.7,-1.9,35.5,-1.9,22.9z" transform="translate(55.46,770.84)"/><path fill="none" stroke="#f2f2f2" id="shape11" d="M-1.9,22.9C-1.9,10.2,10.9,0,26.8,0C42.6,0,55.4,10.2,55.4,22.9C55.4,35.5,42.6,45.7,26.8,45.7C10.9,45.7,-1.9,35.5,-1.9,22.9z" transform="translate(797.94,770.84)"/><path fill="none" stroke="#f2f2f2" id="shape12" d="M-1.9,22.9C-1.9,10.2,10.9,0,26.8,0C42.6,0,55.4,10.2,55.4,22.9C55.4,35.5,42.6,45.7,26.8,45.7C10.9,45.7,-1.9,35.5,-1.9,22.9z" transform="translate(904.01,770.84)"/><path fill="none" stroke="#f2f2f2" id="shape13" d="M-1.9,22.9C-1.9,10.2,10.9,0,26.8,0C42.6,0,55.4,10.2,55.4,22.9C55.4,35.5,42.6,45.7,26.8,45.7C10.9,45.7,-1.9,35.5,-1.9,22.9z" transform="translate(1010.08,770.84)"/><path fill="none" stroke="#f2f2f2" id="shape14" d="M-1.9,22.9C-1.9,10.2,10.9,0,26.8,0C42.6,0,55.4,10.2,55.4,22.9C55.4,35.5,42.6,45.7,26.8,45.7C10.9,45.7,-1.9,35.5,-1.9,22.9z" transform="translate(373.67,770.84)"/><path fill="none" stroke="#f2f2f2" id="shape15" d="M-1.9,22.9C-1.9,10.2,10.9,0,26.8,0C42.6,0,55.4,10.2,55.4,22.9C55.4,35.5,42.6,45.7,26.8,45.7C10.9,45.7,-1.9,35.5,-1.9,22.9z" transform="translate(267.6,770.84)"/><path fill="none" stroke="#f2f2f2" id="shape16" d="M-1.9,22.9C-1.9,10.2,10.9,0,26.8,0C42.6,0,55.4,10.2,55.4,22.9C55.4,35.5,42.6,45.7,26.8,45.7C10.9,45.7,-1.9,35.5,-1.9,22.9z" transform="translate(161.53,770.84)"/><path fill="none" stroke="#f2f2f2" id="shape17" d="M-1.9,22.9C-1.9,10.2,10.9,0,26.8,0C42.6,0,55.4,10.2,55.4,22.9C55.4,35.5,42.6,45.7,26.8,45.7C10.9,45.7,-1.9,35.5,-1.9,22.9z" transform="translate(585.8,770.84)"/><path fill="none" stroke="#f2f2f2" id="shape18" d="M-1.9,22.9C-1.9,10.2,10.9,0,26.8,0C42.6,0,55.4,10.2,55.4,22.9C55.4,35.5,42.6,45.7,26.8,45.7C10.9,45.7,-1.9,35.5,-1.9,22.9z" transform="translate(691.87,770.84)"/><path fill="none" stroke="#f2f2f2" id="shape19" d="M-1.9,22.9C-1.9,10.2,10.9,0,26.8,0C42.6,0,55.4,10.2,55.4,22.9C55.4,35.5,42.6,45.7,26.8,45.7C10.9,45.7,-1.9,35.5,-1.9,22.9z" transform="translate(479.73,770.84)"/><path fill="none" stroke="#f2f2f2" id="shape20" d="M-0.9,56.7C-0.9,25.4,5.3,0,12.9,0C20.6,0,26.8,25.4,26.8,56.7C26.8,88,20.6,113.4,12.9,113.4C5.3,113.4,-0.9,88,-0.9,56.7z" transform="translate(547.39,95.4)"/></g><path fill="none" stroke="#2d85c1" id="shape21" d="M0,0L0,52L20,52" transform="translate(175.34,311.91)"/><path fill="none" stroke="#2d85c1" id="shape22" d="M0,0L0,78L20,78" transform="translate(175.34,311.91)"/><path fill="none" stroke="#2d85c1" id="shape23" d="M0,0L0,104L20,104" transform="translate(175.34,311.91)"/><path fill="none" stroke="#2d85c1" id="shape24" d="M0,0L0,130L20,130" transform="translate(175.34,311.91)"/><path fill="none" stroke="#2d85c1" id="shape25" d="M0,0L0,156L20,156" transform="translate(175.34,311.91)"/><path fill="none" stroke="#2d85c1" id="shape26" d="M0,0L0,484C0,490,4,494,10,494L20,494" transform="translate(227.34,467.91)"/><path fill="none" stroke="#2d85c1" id="shape27" d="M0,0L0,458C0,464,4,468,10,468L20,468" transform="translate(227.34,467.91)"/><path fill="none" stroke="#2d85c1" id="shape28" d="M0,0L0,224C0,230,4,234,10,234L20,234" transform="translate(227.34,467.91)"/><path fill="none" stroke="#2d85c1" id="shape29" d="M0,0L0,16C0,22,4,26,10,26L20,26" transform="translate(227.34,467.91)"/><path fill="none" stroke="#2d85c1" id="shape30" d="M0,0L0,42C0,48,4,52,10,52L20,52" transform="translate(286.34,493.91)"/><path fill="none" stroke="#2d85c1" id="shape31" d="M0,0L0,16C0,22,4,26,10,26L20,26" transform="translate(297.34,701.91)"/><path fill="none" stroke="#2d85c1" id="shape32" d="M0,0L0,16C0,22,4,26,10,26L20,26" transform="translate(291.34,961.91)"/><path fill="none" stroke="#2d85c1" id="shape33" d="M0,0L0,-16C0,-22,-4,-26,-10,-26L-56,-26" transform="translate(362.34,545.91)"/><path fill="none" stroke="#2d85c1" id="shape34" d="M0,0L0,68C0,74,4,78,10,78L20,78" transform="translate(286.34,493.91)"/><path fill="none" stroke="#2d85c1" id="shape35" d="M0,0L0,94C0,100,4,104,10,104L20,104" transform="translate(286.34,493.91)"/><path fill="none" stroke="#2d85c1" id="shape36" d="M0,0L0,120C0,126,4,130,10,130L20,130" transform="translate(286.34,493.91)"/><path fill="none" stroke="#2d85c1" id="shape37" d="M0,0L0,146C0,152,4,156,10,156L20,156" transform="translate(286.34,493.91)"/><path fill="none" stroke="#2d85c1" id="shape38" d="M0,0L0,172C0,178,4,182,10,182L20,182" transform="translate(286.34,493.91)"/><path fill="none" stroke="#2d85c1" id="shape39" d="M0,0L0,42C0,48,4,52,10,52L20,52" transform="translate(297.34,701.91)"/><path fill="none" stroke="#2d85c1" id="shape40" d="M0,0L0,120C0,126,4,130,10,130L20,130" transform="translate(297.34,701.91)"/><path fill="none" stroke="#2d85c1" id="shape41" d="M0,0L0,42C0,48,4,52,10,52L20,52" transform="translate(291.34,961.91)"/><path fill="none" stroke="#2d85c1" id="shape42" d="M0,0L0,68C0,74,4,78,10,78L20,78" transform="translate(291.34,961.91)"/><path fill="none" stroke="#2d85c1" id="shape43" d="M0,0L0,94C0,100,4,104,10,104L20,104" transform="translate(291.34,961.91)"/><path fill="none" stroke="#2d85c1" id="shape44" d="M0,0L0,614C0,620,4,624,10,624L20,624" transform="translate(227.34,467.91)"/><path fill="none" stroke="#2d85c1" id="shape45" d="M0,0L0,172C0,178,4,182,10,182L20,182" transform="translate(297.34,701.91)"/><path fill="none" stroke="#2d85c1" id="shape46" d="M0,0L0,16C0,22,4,26,10,26L20,26" transform="translate(394.34,753.91)"/><path fill="none" stroke="#2d85c1" id="shape47" d="M0,0L0,806L20,806" transform="translate(175.34,311.91)"/><path fill="none" stroke="#2d85c1" id="shape48" d="M0,0L0,832L20,832" transform="translate(175.34,311.91)"/><path fill="none" stroke="#2d85c1" id="shape49" d="M0,0L0,42C0,48,4,52,10,52L20,52" transform="translate(394.34,753.91)"/><path fill="none" stroke="#2d85c1" id="shape50" d="M0,0L0,16C0,22,4,26,10,26L20,26" transform="translate(387.34,831.91)"/><path fill="none" stroke="#2d85c1" id="shape51" d="M0,0L0,16C0,22,4,26,10,26L20,26" transform="translate(425.34,883.91)"/><path fill="none" stroke="#2d85c1" id="shape52" d="M0,0L0,16L-299.5,16L-299.5,40" transform="translate(474.84,237.91)"/><path fill="none" stroke="#2d85c1" id="shape53" d="M0,0L0,26L20,26" transform="translate(737.34,371.91)"/><g transform="translate(757.34,381.91)"><g id="shape54"><path fill="none" stroke="#2d85c1" d="M0,16L68,16"/></g><text class="st1"><tspan y="11" x="41.2">User</tspan></text><text class="st1"><tspan y="11" x="8">2.2.1.</tspan></text></g><path fill="none" stroke="#2d85c1" id="shape55" d="M0,0L0,52L20,52" transform="translate(737.34,371.91)"/><path fill="none" stroke="#2d85c1" id="shape56" d="M0,0L0,16L427.5,16L427.5,40" transform="translate(474.84,237.91)"/><path fill="none" stroke="#2d85c1" id="shape57" d="M0,0L0,26L20,26" transform="translate(175.34,311.91)"/><path fill="none" stroke="#2d85c1" id="shape58" d="M0,0L0,30L20,30" transform="translate(643.34,311.91)"/><path fill="none" stroke="#2d85c1" id="shape59" d="M0,0L0,30L20,30" transform="translate(902.34,311.91)"/><path fill="none" stroke="#2d85c1" id="shape60" d="M0,0L0,60L20,60" transform="translate(902.34,311.91)"/><path fill="none" stroke="#2d85c1" id="shape61" d="M0,0L0,90L20,90" transform="translate(902.34,311.91)"/><path fill="none" stroke="#2d85c1" id="shape62" d="M0,0L0,120L20,120" transform="translate(902.34,311.91)"/><path fill="none" stroke="#2d85c1" id="shape63" d="M0,0L0,150L20,150" transform="translate(902.34,311.91)"/><path fill="none" stroke="#2d85c1" id="shape64" d="M0,0L0,180L20,180" transform="translate(902.34,311.91)"/><path fill="none" stroke="#2d85c1" id="shape65" d="M0,0L0,210L20,210" transform="translate(902.34,311.91)"/><path fill="none" stroke="#2d85c1" id="shape66" d="M0,0L0,240L20,240" transform="translate(902.34,311.91)"/><path fill="none" stroke="#2d85c1" id="shape67" d="M0,0L0,270L20,270" transform="translate(902.34,311.91)"/><g transform="translate(757.34,407.91)"><g id="shape68"><path fill="none" stroke="#2d85c1" d="M0,16L84,16"/></g><text class="st1"><tspan y="11" x="42">produits</tspan></text><text class="st1"><tspan y="11" x="8">2.2.2.</tspan></text></g><path fill="none" stroke="#2d85c1" id="shape69" d="M0,0L0,16L168.5,16L168.5,40" transform="translate(474.84,237.91)"/><path fill="none" stroke="#2d85c1" id="shape70" d="M0,0L0,300L20,300" transform="translate(902.34,311.91)"/><g transform="translate(417.84,197.91)"><path fill="#3498db" stroke="#3498db" id="shape71" d="M7.2,0L106.8,0C110.8,0,114,3.2,114,7.2L114,32.8C114,36.8,110.8,40,106.8,40L7.2,40C3.2,40,0,36.8,0,32.8L0,7.2C0,3.2,3.2,0,7.2,0z"/><text class="st2"><tspan y="22.4" x="25.4">SMART KEY</tspan></text></g><g transform="translate(120.34,277.91)"><path fill="#1bbc9d" stroke="#1bbc9d" id="shape72" d="M6.1,0L103.9,0C107.3,0,110,2.7,110,6.1L110,27.9C110,31.3,107.3,34,103.9,34L6.1,34C2.7,34,0,31.3,0,27.9L0,6.1C0,2.7,2.7,0,6.1,0z"/><text class="st3"><tspan y="18.6" x="45.2">Build HTML</tspan></text><text class="st3"><tspan y="18.6" x="16.1">1.</tspan></text></g><g transform="translate(591.34,277.91)"><path fill="#1bbc9d" stroke="#1bbc9d" id="shape73" d="M6.1,0L97.9,0C101.3,0,104,2.7,104,6.1L104,27.9C104,31.3,101.3,34,97.9,34L6.1,34C2.7,34,0,31.3,0,27.9L0,6.1C0,2.7,2.7,0,6.1,0z"/><text class="st3"><tspan y="18.6" x="44.4">Data Base</tspan></text><text class="st3"><tspan y="18.6" x="16.1">2.</tspan></text></g><g transform="translate(861.34,277.91)"><path fill="#1bbc9d" stroke="#1bbc9d" id="shape74" d="M6.1,0L75.9,0C79.3,0,82,2.7,82,6.1L82,27.9C82,31.3,79.3,34,75.9,34L6.1,34C2.7,34,0,31.3,0,27.9L0,6.1C0,2.7,2.7,0,6.1,0z"/><text class="st3"><tspan y="18.6" x="43.6">Server</tspan></text><text class="st3"><tspan y="18.6" x="16.1">3.</tspan></text></g><g transform="translate(195.34,321.91)"><path fill="none" stroke="#2d85c1" id="shape75" d="M0,16L92,16"/><text class="st1"><tspan y="11" x="42">Définition</tspan></text><text class="st1"><tspan y="11" x="10.4">1.1.</tspan></text></g><g transform="translate(663.34,321.91)"><path fill="none" stroke="#2d85c1" id="shape76" d="M0,20L96,20"/><text class="st1"><tspan y="15" x="46">Définition</tspan></text><text class="st1"><tspan y="13.5" x="12.4">2.1.</tspan></text></g><g transform="translate(922.34,321.91)"><path fill="none" stroke="#2d85c1" id="shape77" d="M0,20L108,20"/><text class="st1"><tspan y="13.5" x="50.5">Task Name</tspan></text><text class="st1"><tspan y="13.5" x="12.4">3.1.</tspan></text></g><g transform="translate(922.34,351.91)"><path fill="none" stroke="#2d85c1" id="shape78" d="M0,20L108,20"/><text class="st1"><tspan y="13.5" x="50.5">Task Name</tspan></text><text class="st1"><tspan y="13.5" x="12.4">3.2.</tspan></text></g><g transform="translate(922.34,381.91)"><path fill="none" stroke="#2d85c1" id="shape79" d="M0,20L108,20"/><text class="st1"><tspan y="13.5" x="50.5">Task Name</tspan></text><text class="st1"><tspan y="13.5" x="12.4">3.3.</tspan></text></g><g transform="translate(922.34,411.91)"><path fill="none" stroke="#2d85c1" id="shape80" d="M0,20L108,20"/><text class="st1"><tspan y="13.5" x="50.5">Task Name</tspan></text><text class="st1"><tspan y="13.5" x="12.4">3.4.</tspan></text></g><g transform="translate(922.34,441.91)"><path fill="none" stroke="#2d85c1" id="shape81" d="M0,20L108,20"/><text class="st1"><tspan y="13.5" x="50.5">Task Name</tspan></text><text class="st1"><tspan y="13.5" x="12.4">3.5.</tspan></text></g><g transform="translate(922.34,471.91)"><path fill="none" stroke="#2d85c1" id="shape82" d="M0,20L108,20"/><text class="st1"><tspan y="13.5" x="50.5">Task Name</tspan></text><text class="st1"><tspan y="13.5" x="12.4">3.6.</tspan></text></g><g transform="translate(922.34,501.91)"><path fill="none" stroke="#2d85c1" id="shape83" d="M0,20L108,20"/><text class="st1"><tspan y="13.5" x="50.5">Task Name</tspan></text><text class="st1"><tspan y="13.5" x="12.4">3.7.</tspan></text></g><g transform="translate(922.34,531.91)"><path fill="none" stroke="#2d85c1" id="shape84" d="M0,20L108,20"/><text class="st1"><tspan y="13.5" x="50.5">Task Name</tspan></text><text class="st1"><tspan y="13.5" x="12.4">3.8.</tspan></text></g><g transform="translate(922.34,561.91)"><path fill="none" stroke="#2d85c1" id="shape85" d="M0,20L108,20"/><text class="st1"><tspan y="13.5" x="50.5">Task Name</tspan></text><text class="st1"><tspan y="13.5" x="12.4">3.9.</tspan></text></g><g transform="translate(922.34,591.91)"><path fill="none" stroke="#2d85c1" id="shape86" d="M0,20L114,20"/><text class="st1"><tspan y="15" x="53.8">Task Name</tspan></text><text class="st1"><tspan y="13.5" x="12.7">3.10.</tspan></text></g><g id="shape87" transform="translate(93.38,80.79)"><text class="st4"><tspan y="35.4" x="309.8">E Commerce site "SMART KEY"</tspan></text></g><g id="shape88" transform="translate(190.24,135.03)"><text class="st5"><tspan y="16.7" x="218">Site de E-commerce  comprenant Front / Back / base de données</tspan></text></g><g transform="translate(195.34,347.91)"><g id="shape89"><path fill="none" stroke="#2d85c1" d="M0,16L56,16"/></g><text class="st1"><tspan y="11" x="30.8">plan</tspan></text><text class="st1"><tspan y="11" x="7.2">1.2.</tspan></text></g><g transform="translate(195.34,373.91)"><g id="shape90"><path fill="none" stroke="#2d85c1" d="M0,16L88,16"/></g><text class="st1"><tspan y="11" x="33.2">Navigation</tspan></text><text class="st1"><tspan y="11" x="7.2">1.3.</tspan></text></g><g transform="translate(195.34,399.91)"><g id="shape91"><path fill="none" stroke="#2d85c1" d="M0,16L82,16"/></g><text class="st1"><tspan y="11" x="33.2">maquette</tspan></text><text class="st1"><tspan y="11" x="7.2">1.4.</tspan></text></g><g transform="translate(195.34,425.91)"><g id="shape92"><path fill="none" stroke="#2d85c1" d="M0,16L68,16"/></g><text class="st1"><tspan y="11" x="31.6">design</tspan></text><text class="st1"><tspan y="11" x="7.2">1.5.</tspan></text></g><g transform="translate(195.34,451.91)"><g id="shape93"><path fill="none" stroke="#2d85c1" d="M0,16L64,16"/></g><text class="st1"><tspan y="11" x="32.4">HTML</tspan></text><text class="st1"><tspan y="11" x="7.2">1.6.</tspan></text></g><g transform="translate(247.34,477.91)"><g id="shape94"><path fill="none" stroke="#2d85c1" d="M0,16L78,16"/></g><text class="st1"><tspan y="11" x="42.8">HOME</tspan></text><text class="st1"><tspan y="11" x="8">1.6.1.</tspan></text></g><g transform="translate(247.34,945.91)"><g id="shape95"><path fill="none" stroke="#2d85c1" d="M0,16L88,16"/></g><text class="st1"><tspan y="11" x="42.8">payment</tspan></text><text class="st1"><tspan y="11" x="8">1.6.4.</tspan></text></g><g transform="translate(247.34,919.91)"><g id="shape96"><path fill="none" stroke="#2d85c1" d="M0,16L108,16"/></g><text class="st1"><tspan y="11" x="44.4">basket Page</tspan></text><text class="st1"><tspan y="11" x="8">1.6.3.</tspan></text></g><g transform="translate(247.34,685.91)"><g id="shape97"><path fill="none" stroke="#2d85c1" d="M0,16L100,16"/></g><text class="st1"><tspan y="11" x="42.8">login Nodal</tspan></text><text class="st1"><tspan y="11" x="8">1.6.2.</tspan></text></g><g transform="translate(306.34,529.91)"><g id="shape98"><path fill="none" stroke="#2d85c1" d="M0,16L112,16"/></g><text class="st1"><tspan y="11" x="53.2">Login icone</tspan></text><text class="st1"><tspan y="11" x="8.8">1.6.1.2.</tspan></text></g><g transform="translate(317.34,711.91)"><g id="shape99"><path fill="none" stroke="#2d85c1" d="M0,16L92,16"/></g><text class="st1"><tspan y="11" x="52.4">LOG IN</tspan></text><text class="st1"><tspan y="11" x="8.8">1.6.2.1.</tspan></text></g><g transform="translate(311.34,971.91)"><g id="shape100"><path fill="none" stroke="#2d85c1" d="M0,16L70,16"/></g><text class="st1"><tspan y="11" x="50.8">CB</tspan></text><text class="st1"><tspan y="11" x="8.8">1.6.4.1.</tspan></text></g><g transform="translate(663.34,351.91)"><path fill="none" stroke="#2d85c1" id="shape101" d="M0,20L148,20"/><text class="st1"><tspan y="15" x="50">création des tables</tspan></text><text class="st1"><tspan y="13.5" x="12.4">2.2.</tspan></text></g><path fill="none" stroke="#2d85c1" id="shape102" d="M0,0L0,60L20,60" transform="translate(643.34,311.91)"/><g transform="translate(306.34,555.91)"><g id="shape103"><path fill="none" stroke="#2d85c1" d="M0,16L114,16"/></g><text class="st1"><tspan y="11" x="54">Basket icon</tspan></text><text class="st1"><tspan y="11" x="8.8">1.6.1.3.</tspan></text></g><g transform="translate(306.34,581.91)"><g id="shape104"><path fill="none" stroke="#2d85c1" d="M0,16L110,16"/></g><text class="st1"><tspan y="11" x="54">Search bar</tspan></text><text class="st1"><tspan y="11" x="8.8">1.6.1.4.</tspan></text></g><g transform="translate(306.34,607.91)"><g id="shape105"><path fill="none" stroke="#2d85c1" d="M0,16L106,16"/></g><text class="st1"><tspan y="11" x="54">Slide BOX</tspan></text><text class="st1"><tspan y="11" x="8.8">1.6.1.5.</tspan></text></g><g transform="translate(306.34,633.91)"><g id="shape106"><path fill="none" stroke="#2d85c1" d="M0,16L90,16"/></g><text class="st1"><tspan y="11" x="51.6">Produit</tspan></text><text class="st1"><tspan y="11" x="8.8">1.6.1.6.</tspan></text></g><g transform="translate(306.34,659.91)"><g id="shape107"><path fill="none" stroke="#2d85c1" d="M0,16L86,16"/></g><text class="st1"><tspan y="11" x="51.6">Footer</tspan></text><text class="st1"><tspan y="11" x="8.8">1.6.1.7.</tspan></text></g><g transform="translate(317.34,737.91)"><g id="shape108"><path fill="none" stroke="#2d85c1" d="M0,16L154,16"/></g><text class="st1"><tspan y="11" x="56.4">Mot de passe oubié</tspan></text><text class="st1"><tspan y="11" x="8.8">1.6.2.2.</tspan></text></g><g transform="translate(317.34,815.91)"><g id="shape109"><path fill="none" stroke="#2d85c1" d="M0,16L140,16"/></g><text class="st1"><tspan y="11" x="54.8">Nouvel utilisateur</tspan></text><text class="st1"><tspan y="11" x="8.8">1.6.2.3.</tspan></text></g><g transform="translate(311.34,997.91)"><g id="shape110"><path fill="none" stroke="#2d85c1" d="M0,16L88,16"/></g><text class="st1"><tspan y="11" x="51.6">Paypal</tspan></text><text class="st1"><tspan y="11" x="8.8">1.6.4.2.</tspan></text></g><g transform="translate(311.34,1023.91)"><g id="shape111"><path fill="none" stroke="#2d85c1" d="M0,16L140,16"/></g><text class="st1"><tspan y="11" x="55.6">Mail confirmation</tspan></text><text class="st1"><tspan y="11" x="8.8">1.6.4.3.</tspan></text></g><g transform="translate(311.34,1049.91)"><g id="shape112"><path fill="none" stroke="#2d85c1" d="M0,16L130,16"/></g><text class="st1"><tspan y="11" x="54.8">Remerciement</tspan></text><text class="st1"><tspan y="11" x="8.8">1.6.4.4.</tspan></text></g><g transform="translate(247.34,1075.91)"><g id="shape113"><path fill="none" stroke="#2d85c1" d="M0,16L84,16"/></g><text class="st1"><tspan y="11" x="43.6">DataViz</tspan></text><text class="st1"><tspan y="11" x="8">1.6.5.</tspan></text></g><g transform="translate(317.34,867.91)"><g id="shape114"><path fill="none" stroke="#2d85c1" d="M0,16L216,16"/></g><text class="st1"><tspan y="11" x="60.4">modification données utilisateur</tspan></text><text class="st1"><tspan y="11" x="8.8">1.6.2.4.</tspan></text></g><g transform="translate(414.34,763.91)"><g id="shape115"><path fill="none" stroke="#2d85c1" d="M0,16L132,16"/></g><text class="st1"><tspan y="11" x="64.4">Email envoyé</tspan></text><text class="st1"><tspan y="11" x="9.6">1.6.2.2.1.</tspan></text></g><g transform="translate(195.34,1101.91)"><g id="shape116"><path fill="none" stroke="#2d85c1" d="M0,16L98,16"/></g><text class="st1"><tspan y="11" x="34">Assemblage</tspan></text><text class="st1"><tspan y="11" x="7.2">1.7.</tspan></text></g><g transform="translate(195.34,1127.91)"><g id="shape117"><path fill="none" stroke="#2d85c1" d="M0,16L64,16"/></g><text class="st1"><tspan y="11" x="33.2">TEST</tspan></text><text class="st1"><tspan y="11" x="7.2">1.8.</tspan></text></g><g transform="translate(414.34,789.91)"><g id="shape118"><path fill="none" stroke="#2d85c1" d="M0,16L156,16"/></g><text class="st1"><tspan y="11" x="65.2">utilisateru inconnu</tspan></text><text class="st1"><tspan y="11" x="9.6">1.6.2.2.2.</tspan></text></g><g transform="translate(407.34,841.91)"><g id="shape119"><path fill="none" stroke="#2d85c1" d="M0,16L132,16"/></g><text class="st1"><tspan y="11" x="64.4">Email envoyé</tspan></text><text class="st1"><tspan y="11" x="9.6">1.6.2.3.1.</tspan></text></g><g transform="translate(445.34,893.91)"><g id="shape120"><path fill="none" stroke="#2d85c1" d="M0,16L126,16"/></g><text class="st1"><tspan y="11" x="63.6">Récapitulatif</tspan></text><text class="st1"><tspan y="11" x="9.6">1.6.2.4.1.</tspan></text></g><g transform="translate(306.34,503.91)"><g id="shape121"><path fill="none" stroke="#2d85c1" d="M0,16L152,16"/></g><text class="st1"><tspan y="11" x="56.4">Barre de navigation</tspan></text><text class="st1"><tspan y="11" x="8.8">1.6.1.1.</tspan></text></g></g></svg>