<?xml version="1.0" encoding="utf-8"?>
<!-- Generator: Adobe Illustrator 19.0.0, SVG Export Plug-In . SVG Version: 6.00 Build 0)  -->
<svg version="1.1" id="Calque_1" xmlns="http://www.w3.org/2000/svg" xmlns:xlink="http://www.w3.org/1999/xlink" x="0px" y="0px"
	 viewBox="195 293.2 713 255.7" style="enable-background:new 195 293.2 713 255.7;" xml:space="preserve">
<style type="text/css">
	.st0{fill:none;stroke:#FFC800;stroke-width:7;stroke-miterlimit:10;}
	.st1{fill:#FFFFFF;}
</style>
<circle class="st0" cx="772.2" cy="427" r="52.5"/>
<path class="st0" d="M745.8,396.4c-8.6,7.4-14,18.4-14,30.6c0,22.3,18.1,40.4,40.4,40.4s40.4-18.1,40.4-40.4
	c0-12.2-5.4-23.2-14-30.6"/>
<g>
	<path class="st1" d="M325.8,466.1v-77.5h5.4v72.2h43.5v5.4H325.8z"/>
	<path class="st1" d="M422.4,466.9c-7.1,0-13.6-1.8-19.7-5.3c-6-3.5-10.8-8.4-14.3-14.4c-3.5-6.1-5.2-12.7-5.2-19.9
		c0-7.2,1.7-13.8,5.2-19.9c3.5-6.1,8.3-10.9,14.3-14.4c6-3.5,12.6-5.3,19.7-5.3c7.1,0,13.6,1.8,19.7,5.3c6,3.5,10.8,8.4,14.3,14.4
		c3.5,6.1,5.2,12.7,5.2,19.9c0,7.2-1.8,13.8-5.2,19.9c-3.5,6.1-8.3,10.9-14.3,14.4C436,465.2,429.4,466.9,422.4,466.9z M422.4,393.2
		c-6.1,0-11.8,1.5-16.9,4.6c-5.2,3.1-9.3,7.2-12.3,12.4c-3.1,5.2-4.6,10.9-4.6,17.1c0,6.2,1.5,11.9,4.6,17.1
		c3.1,5.2,7.2,9.3,12.3,12.4c5.2,3.1,10.8,4.6,16.9,4.6c6.1,0,11.8-1.5,16.9-4.6c5.2-3.1,9.3-7.2,12.3-12.4c3-5.2,4.5-10.9,4.5-17.1
		c0-6.2-1.5-11.9-4.5-17.1c-3-5.2-7.1-9.3-12.3-12.4C434.1,394.7,428.5,393.2,422.4,393.2z"/>
	<path class="st1" d="M542.4,466.1h-28c-7.1,0-13.6-1.7-19.6-5.2c-6-3.5-10.7-8.3-14.2-14.3c-3.5-6-5.2-12.6-5.2-19.7
		c0-7.1,1.7-13.6,5.2-19.6c3.5-6,8.2-10.8,14.2-14.3c6-3.5,12.5-5.3,19.6-5.3c5.4,0,10.6,1.1,15.6,3.3c5,2.2,9.3,5.3,12.9,9.3
		l-3.9,3.7c-3.2-3.4-6.9-6.1-11.2-7.9c-4.3-1.9-8.8-2.8-13.4-2.8c-6,0-11.7,1.5-16.8,4.5c-5.2,3-9.3,7.1-12.3,12.2
		c-3,5.1-4.5,10.8-4.5,16.9c0,6.1,1.5,11.8,4.5,16.9c3,5.2,7.1,9.3,12.3,12.3c5.2,3.1,10.8,4.6,16.8,4.6h22.4v-27.8h-25.5v-5.4h31.1
		V466.1z"/>
	<path class="st1" d="M566.7,466.1v-77.5h5.4v77.5H566.7z"/>
	<path class="st1" d="M601.9,403.1v63h-5.4v-78.5l53.7,64.2v-63.2h5.4v78.9L601.9,403.1z"/>
</g>
</svg>
