<?xml version="1.0" encoding="utf-8"?>
<!-- Generator: Adobe Illustrator 19.0.0, SVG Export Plug-In . SVG Version: 6.00 Build 0)  -->
<svg version="1.1" id="Calque_1" xmlns="http://www.w3.org/2000/svg" xmlns:xlink="http://www.w3.org/1999/xlink" x="0px" y="0px"
	 viewBox="195 293.2 986.2 255.7" style="enable-background:new 195 293.2 986.2 255.7;" xml:space="preserve">
<style type="text/css">
	.st0{fill:#1B1F51;}
	.st1{fill:none;stroke:#FFC800;stroke-width:7;stroke-miterlimit:10;}
</style>
<g>
	<path class="st0" d="M285.5,435.2c2.2,3.2,3.3,6.6,3.3,10.3c0,3.2-0.8,6.2-2.3,9c-1.5,2.9-3.8,5.4-6.7,7.5
		c-6,4.3-12.9,6.4-20.9,6.4c-3.9,0-7.7-0.6-11.3-1.7c-3.6-1.1-6.8-2.7-9.6-4.7c-4.9-3.6-7.8-8-8.8-13.2l5.5-3.1
		c0.3,4.7,2.6,8.5,6.9,11.5c2.2,1.7,4.8,3,7.8,3.9s6.1,1.3,9.5,1.3c6.8,0,12.6-1.7,17.3-5.2c4.5-3.3,6.8-7.3,6.8-11.8
		c0-2.6-0.8-5.1-2.5-7.4s-4-4.3-7-5.9c-2.8-1.4-7.9-2.6-15.1-3.5c-0.6-0.1-2.8-0.4-6.5-1c-3.7-0.6-6.9-1.5-9.5-2.8
		c-4.2-2-7.5-4.8-9.9-8.1c-2.4-3.4-3.6-7-3.6-10.9c0-3.2,0.8-6.1,2.4-8.9s3.8-5.2,6.7-7.4c2.8-2,6-3.6,9.6-4.7
		c3.6-1.1,7.3-1.7,11.3-1.7c7.9,0,14.9,2.1,20.9,6.4c4.9,3.8,7.8,8.1,8.7,13.1l-5.5,3.1c-0.1-2.1-0.7-4.2-1.9-6.1
		c-1.2-2-2.8-3.8-4.9-5.4c-2.3-1.7-5-3-7.9-3.9c-3-0.9-6.1-1.3-9.3-1.3s-6.4,0.4-9.4,1.3c-3,0.9-5.7,2.2-7.9,3.9
		c-2.2,1.6-3.9,3.4-5.1,5.4c-1.2,2-1.8,4.1-1.8,6.2c0,2.6,1,5.3,2.9,7.9c2,2.6,4.4,4.6,7.3,6.1c1.8,0.9,3.8,1.5,6,1.9
		c2.2,0.4,5,0.8,8.4,1.2c0.6,0.1,2.1,0.3,4.5,0.6c2.4,0.3,4.7,0.8,6.9,1.4c2.2,0.6,4.1,1.3,5.6,2.2
		C280.2,429.3,283.3,432,285.5,435.2z"/>
	<path class="st0" d="M386.6,467.4v-65.8l-36.9,52.6l-37.3-52.8v65.9h-5.8v-84.2l43.1,60.9l42.6-60.9v84.2h-5.7V467.4z"/>
	<path class="st0" d="M423,446.2l-9.9,21.1h-6.4l39.2-84.2l37,84.2h-6.3l-9.3-21.1H423z M445.7,397.3l-20,43.1h39L445.7,397.3z"/>
	<path class="st0" d="M546.3,467.4l-34.6-42h10.2c6.3,0,11.4-0.8,15.4-2.4c2.9-1.4,5.4-3.4,7.6-6.2c2.1-2.8,3.2-5.8,3.2-9.2
		c0-3-0.9-5.8-2.7-8.5s-4.4-4.9-7.7-6.6s-7.2-2.6-11.5-2.6h-23.3v77.4h-5.8v-83.2h29.1c3.9,0,7.6,0.6,11,1.9c3.4,1.2,6.4,3,9,5.3
		c2.5,2.2,4.4,4.7,5.7,7.6c1.3,2.8,2,5.7,2,8.7c0,4.7-1.4,8.9-4.2,12.6s-6.1,6.4-10,8c-2.6,1.2-5.2,1.9-7.7,2.2
		c-2.5,0.3-5.2,0.4-8,0.4l30.1,36.5h-7.8V467.4z"/>
	<path class="st0" d="M636.8,384.2v5.9H604v77.3h-5.9v-77.3h-33v-5.9H636.8z"/>
	<path class="st0" d="M986.6,467.4h-7.7l-29.8-35.5l-26.9,36.9v-84.6h5.8v66.7l48.5-66.7h7.3L952.5,427L986.6,467.4z"/>
	<path class="st0" d="M1001.3,467.4v-83.2h53.9v5.9h-48.1v32.8h37.5v5.9h-37.5v32.5h48.1v6h-53.9V467.4z"/>
	<path class="st0" d="M1107.7,432.3l32.8-48.1h6.9l-36.9,54.4v28.8h-5.8v-28.8l-36.9-54.4h6.9L1107.7,432.3z"/>
</g>
<path class="st0" d="M758.1,533.4l-95.5-95.5c-5.5-5.5-5.5-14.5,0-20l95.5-95.5c5.5-5.5,14.5-5.5,20,0l95.5,95.5
	c5.5,5.5,5.5,14.5,0,20l-95.5,95.5C772.7,538.9,763.7,538.9,758.1,533.4z"/>
<circle class="st1" cx="768.2" cy="427.8" r="52.5"/>
<path class="st1" d="M741.8,397.2c-8.6,7.4-14,18.4-14,30.6c0,22.3,18.1,40.4,40.4,40.4s40.4-18.1,40.4-40.4
	c0-12.2-5.4-23.2-14-30.6"/>
</svg>
