<?xml version="1.0" encoding="utf-8"?>
<!-- Generator: Adobe Illustrator 19.0.0, SVG Export Plug-In . SVG Version: 6.00 Build 0)  -->
<svg version="1.1" id="Calque_1" xmlns="http://www.w3.org/2000/svg" xmlns:xlink="http://www.w3.org/1999/xlink" x="0px" y="0px"
	 viewBox="-24 26 50 50" style="enable-background:new -24 26 50 50;" xml:space="preserve">
<style type="text/css">
	.st0{display:none;}
	.st1{display:inline;fill:none;}
	.st2{display:none;fill:#FFFFFF;}
	.st3{fill:#FFFFFF;}
	.st4{fill:#1B1F51;}
	.st5{font-family:'MyriadPro-Regular';}
	.st6{font-size:12px;}
</style>
<g id="XMLID_1_" class="st0">
	<circle id="XMLID_18_" class="st1" cx="1" cy="51" r="24"/>
</g>
<circle id="XMLID_3_" class="st2" cx="1" cy="51" r="19.1"/>
<circle id="XMLID_4_" class="st2" cx="1" cy="51" r="17.1"/>
<g id="XMLID_22_">
	<path class="st3" d="M1.1,71c-0.8,0-1.6-0.3-2.2-0.9l-17-17c-1.2-1.2-1.2-3.1,0-4.3l17-17c0.6-0.6,1.3-0.9,2.2-0.9
		c0.8,0,1.6,0.3,2.2,0.9l17,17c1.2,1.2,1.2,3.1,0,4.3l-17,17C2.7,70.7,1.9,71,1.1,71z"/>
	<path class="st4" d="M1.1,31.4c0.6,0,1.3,0.3,1.8,0.8l17,17c1,1,1,2.6,0,3.6l-17,17c-0.5,0.5-1.1,0.8-1.8,0.8s-1.3-0.3-1.8-0.8
		l-17-17c-1-1-1-2.6,0-3.6l17-17C-0.2,31.7,0.5,31.4,1.1,31.4 M1.1,30.4c-0.9,0-1.8,0.4-2.5,1l-17,17c-1.4,1.4-1.4,3.6,0,5l17,17
		c0.7,0.7,1.6,1,2.5,1s1.8-0.4,2.5-1l17-17c1.4-1.4,1.4-3.6,0-5l-17-17C2.9,30.8,2,30.4,1.1,30.4L1.1,30.4z"/>
</g>
<text id="XMLID_2_" transform="matrix(1 0 0 1 -11.744 54.1665)" class="st5 st6">picto</text>
</svg>
